<?xml version="1.0" encoding="UTF-8"?>
<svg xmlns="http://www.w3.org/2000/svg" width="1375" height="850" viewBox="0 0 1375 850">
	<defs>
		<marker id="arrow" viewBox="0 0 10 10" refX="9" refY="5" markerWidth="6" markerHeight="6" orient="auto-start-reverse">
			<path d="M 0 0 L 10 5 L 0 10 z" fill="#666"/>
		</marker>
	</defs>
	<rect width="1375" height="850" fill="#ffffff"/>
	<text x="48" y="38" font-family="Arial, sans-serif" font-size="20" fill="#111" font-weight="700">M8 - Funcionalidades inteligentes previstas</text>
	<line x1="192.5" y1="174" x2="1182.5" y2="441" stroke="#666" stroke-width="1.3" marker-end="url(#arrow)" opacity="0.72"/>
<line x1="192.5" y1="174" x2="522.5" y2="730" stroke="#666" stroke-width="1.3" marker-end="url(#arrow)" opacity="0.72"/>
<line x1="522.5" y1="163" x2="192.5" y2="174" stroke="#666" stroke-width="1.3" marker-end="url(#arrow)" opacity="0.72"/>
<line x1="522.5" y1="163" x2="852.5" y2="730" stroke="#666" stroke-width="1.3" marker-end="url(#arrow)" opacity="0.72"/>
<line x1="852.5" y1="163" x2="1182.5" y2="441" stroke="#666" stroke-width="1.3" marker-end="url(#arrow)" opacity="0.72"/>
<line x1="1182.5" y1="174" x2="1182.5" y2="441" stroke="#666" stroke-width="1.3" marker-end="url(#arrow)" opacity="0.72"/>
<line x1="1182.5" y1="174" x2="852.5" y2="730" stroke="#666" stroke-width="1.3" marker-end="url(#arrow)" opacity="0.72"/>
<line x1="1182.5" y1="174" x2="852.5" y2="430" stroke="#666" stroke-width="1.3" marker-end="url(#arrow)" opacity="0.72"/>
<line x1="192.5" y1="485" x2="192.5" y2="730" stroke="#666" stroke-width="1.3" marker-end="url(#arrow)" opacity="0.72"/>
<line x1="192.5" y1="485" x2="522.5" y2="730" stroke="#666" stroke-width="1.3" marker-end="url(#arrow)" opacity="0.72"/>
<line x1="192.5" y1="485" x2="522.5" y2="430" stroke="#666" stroke-width="1.3" marker-end="url(#arrow)" opacity="0.72"/>
	
				<g>
					<rect x="70" y="80" width="245" height="188" fill="#ffffff" stroke="#333333" stroke-width="1.2"/>
					<rect x="70" y="80" width="245" height="30" fill="#f5f5f5" stroke="#333333" stroke-width="1.2"/>
					<text x="192.5" y="100" font-family="Arial, sans-serif" font-size="12" fill="#111" font-weight="700" text-anchor="middle">Consulta de recomendación</text>
					
						<line x1="70" y1="110" x2="315" y2="110" stroke="#d5d5d5" stroke-width="1"/>
						<text x="78" y="125" font-family="Arial, sans-serif" font-size="11" fill="#222">id</text>
					

						<line x1="70" y1="132" x2="315" y2="132" stroke="#d5d5d5" stroke-width="1"/>
						<text x="78" y="147" font-family="Arial, sans-serif" font-size="11" fill="#222">usuario</text>
					

						<line x1="70" y1="154" x2="315" y2="154" stroke="#d5d5d5" stroke-width="1"/>
						<text x="78" y="169" font-family="Arial, sans-serif" font-size="11" fill="#222">clienteSalon</text>
					

						<line x1="70" y1="176" x2="315" y2="176" stroke="#d5d5d5" stroke-width="1"/>
						<text x="78" y="191" font-family="Arial, sans-serif" font-size="11" fill="#222">tipoCabello</text>
					

						<line x1="70" y1="198" x2="315" y2="198" stroke="#d5d5d5" stroke-width="1"/>
						<text x="78" y="213" font-family="Arial, sans-serif" font-size="11" fill="#222">estadoCabello</text>
					

						<line x1="70" y1="220" x2="315" y2="220" stroke="#d5d5d5" stroke-width="1"/>
						<text x="78" y="235" font-family="Arial, sans-serif" font-size="11" fill="#222">tratamientosPrevios</text>
					

						<line x1="70" y1="242" x2="315" y2="242" stroke="#d5d5d5" stroke-width="1"/>
						<text x="78" y="257" font-family="Arial, sans-serif" font-size="11" fill="#222">observaciones</text>
					
				</g>
			

				<g>
					<rect x="400" y="80" width="245" height="166" fill="#ffffff" stroke="#333333" stroke-width="1.2"/>
					<rect x="400" y="80" width="245" height="30" fill="#f5f5f5" stroke="#333333" stroke-width="1.2"/>
					<text x="522.5" y="100" font-family="Arial, sans-serif" font-size="12" fill="#111" font-weight="700" text-anchor="middle">Recomendación de tratamiento</text>
					
						<line x1="400" y1="110" x2="645" y2="110" stroke="#d5d5d5" stroke-width="1"/>
						<text x="408" y="125" font-family="Arial, sans-serif" font-size="11" fill="#222">id</text>
					

						<line x1="400" y1="132" x2="645" y2="132" stroke="#d5d5d5" stroke-width="1"/>
						<text x="408" y="147" font-family="Arial, sans-serif" font-size="11" fill="#222">consulta</text>
					

						<line x1="400" y1="154" x2="645" y2="154" stroke="#d5d5d5" stroke-width="1"/>
						<text x="408" y="169" font-family="Arial, sans-serif" font-size="11" fill="#222">producto</text>
					

						<line x1="400" y1="176" x2="645" y2="176" stroke="#d5d5d5" stroke-width="1"/>
						<text x="408" y="191" font-family="Arial, sans-serif" font-size="11" fill="#222">descripcion</text>
					

						<line x1="400" y1="198" x2="645" y2="198" stroke="#d5d5d5" stroke-width="1"/>
						<text x="408" y="213" font-family="Arial, sans-serif" font-size="11" fill="#222">prioridad</text>
					

						<line x1="400" y1="220" x2="645" y2="220" stroke="#d5d5d5" stroke-width="1"/>
						<text x="408" y="235" font-family="Arial, sans-serif" font-size="11" fill="#222">motivo</text>
					
				</g>
			

				<g>
					<rect x="730" y="80" width="245" height="166" fill="#ffffff" stroke="#333333" stroke-width="1.2"/>
					<rect x="730" y="80" width="245" height="30" fill="#f5f5f5" stroke="#333333" stroke-width="1.2"/>
					<text x="852.5" y="100" font-family="Arial, sans-serif" font-size="12" fill="#111" font-weight="700" text-anchor="middle">Simulación de coloración</text>
					
						<line x1="730" y1="110" x2="975" y2="110" stroke="#d5d5d5" stroke-width="1"/>
						<text x="738" y="125" font-family="Arial, sans-serif" font-size="11" fill="#222">id</text>
					

						<line x1="730" y1="132" x2="975" y2="132" stroke="#d5d5d5" stroke-width="1"/>
						<text x="738" y="147" font-family="Arial, sans-serif" font-size="11" fill="#222">usuario</text>
					

						<line x1="730" y1="154" x2="975" y2="154" stroke="#d5d5d5" stroke-width="1"/>
						<text x="738" y="169" font-family="Arial, sans-serif" font-size="11" fill="#222">imagenOrigen</text>
					

						<line x1="730" y1="176" x2="975" y2="176" stroke="#d5d5d5" stroke-width="1"/>
						<text x="738" y="191" font-family="Arial, sans-serif" font-size="11" fill="#222">cambioSolicitado</text>
					

						<line x1="730" y1="198" x2="975" y2="198" stroke="#d5d5d5" stroke-width="1"/>
						<text x="738" y="213" font-family="Arial, sans-serif" font-size="11" fill="#222">resultado</text>
					

						<line x1="730" y1="220" x2="975" y2="220" stroke="#d5d5d5" stroke-width="1"/>
						<text x="738" y="235" font-family="Arial, sans-serif" font-size="11" fill="#222">fechaCreacion</text>
					
				</g>
			

				<g>
					<rect x="1060" y="80" width="245" height="188" fill="#ffffff" stroke="#333333" stroke-width="1.2"/>
					<rect x="1060" y="80" width="245" height="30" fill="#f5f5f5" stroke="#333333" stroke-width="1.2"/>
					<text x="1182.5" y="100" font-family="Arial, sans-serif" font-size="12" fill="#111" font-weight="700" text-anchor="middle">Reconocimiento de producto</text>
					
						<line x1="1060" y1="110" x2="1305" y2="110" stroke="#d5d5d5" stroke-width="1"/>
						<text x="1068" y="125" font-family="Arial, sans-serif" font-size="11" fill="#222">id</text>
					

						<line x1="1060" y1="132" x2="1305" y2="132" stroke="#d5d5d5" stroke-width="1"/>
						<text x="1068" y="147" font-family="Arial, sans-serif" font-size="11" fill="#222">usuario</text>
					

						<line x1="1060" y1="154" x2="1305" y2="154" stroke="#d5d5d5" stroke-width="1"/>
						<text x="1068" y="169" font-family="Arial, sans-serif" font-size="11" fill="#222">imagen</text>
					

						<line x1="1060" y1="176" x2="1305" y2="176" stroke="#d5d5d5" stroke-width="1"/>
						<text x="1068" y="191" font-family="Arial, sans-serif" font-size="11" fill="#222">codigoDetectado</text>
					

						<line x1="1060" y1="198" x2="1305" y2="198" stroke="#d5d5d5" stroke-width="1"/>
						<text x="1068" y="213" font-family="Arial, sans-serif" font-size="11" fill="#222">producto</text>
					

						<line x1="1060" y1="220" x2="1305" y2="220" stroke="#d5d5d5" stroke-width="1"/>
						<text x="1068" y="235" font-family="Arial, sans-serif" font-size="11" fill="#222">proposito</text>
					

						<line x1="1060" y1="242" x2="1305" y2="242" stroke="#d5d5d5" stroke-width="1"/>
						<text x="1068" y="257" font-family="Arial, sans-serif" font-size="11" fill="#222">fecha</text>
					
				</g>
			

				<g>
					<rect x="70" y="380" width="245" height="210" fill="#ffffff" stroke="#333333" stroke-width="1.2"/>
					<rect x="70" y="380" width="245" height="30" fill="#f5f5f5" stroke="#333333" stroke-width="1.2"/>
					<text x="192.5" y="400" font-family="Arial, sans-serif" font-size="12" fill="#111" font-weight="700" text-anchor="middle">Reserva online</text>
					
						<line x1="70" y1="410" x2="315" y2="410" stroke="#d5d5d5" stroke-width="1"/>
						<text x="78" y="425" font-family="Arial, sans-serif" font-size="11" fill="#222">id</text>
					

						<line x1="70" y1="432" x2="315" y2="432" stroke="#d5d5d5" stroke-width="1"/>
						<text x="78" y="447" font-family="Arial, sans-serif" font-size="11" fill="#222">clienteProfesional</text>
					

						<line x1="70" y1="454" x2="315" y2="454" stroke="#d5d5d5" stroke-width="1"/>
						<text x="78" y="469" font-family="Arial, sans-serif" font-size="11" fill="#222">clienteSalon</text>
					

						<line x1="70" y1="476" x2="315" y2="476" stroke="#d5d5d5" stroke-width="1"/>
						<text x="78" y="491" font-family="Arial, sans-serif" font-size="11" fill="#222">nombre</text>
					

						<line x1="70" y1="498" x2="315" y2="498" stroke="#d5d5d5" stroke-width="1"/>
						<text x="78" y="513" font-family="Arial, sans-serif" font-size="11" fill="#222">contacto</text>
					

						<line x1="70" y1="520" x2="315" y2="520" stroke="#d5d5d5" stroke-width="1"/>
						<text x="78" y="535" font-family="Arial, sans-serif" font-size="11" fill="#222">servicio</text>
					

						<line x1="70" y1="542" x2="315" y2="542" stroke="#d5d5d5" stroke-width="1"/>
						<text x="78" y="557" font-family="Arial, sans-serif" font-size="11" fill="#222">fecha</text>
					

						<line x1="70" y1="564" x2="315" y2="564" stroke="#d5d5d5" stroke-width="1"/>
						<text x="78" y="579" font-family="Arial, sans-serif" font-size="11" fill="#222">estado</text>
					
				</g>
			

				<g>
					<rect x="400" y="380" width="245" height="100" fill="#ffffff" stroke="#333333" stroke-width="1.2"/>
					<rect x="400" y="380" width="245" height="30" fill="#f5f5f5" stroke="#333333" stroke-width="1.2"/>
					<text x="522.5" y="400" font-family="Arial, sans-serif" font-size="12" fill="#111" font-weight="700" text-anchor="middle">Estado de reserva</text>
					
						<line x1="400" y1="410" x2="645" y2="410" stroke="#d5d5d5" stroke-width="1"/>
						<text x="408" y="425" font-family="Arial, sans-serif" font-size="11" fill="#222">id</text>
					

						<line x1="400" y1="432" x2="645" y2="432" stroke="#d5d5d5" stroke-width="1"/>
						<text x="408" y="447" font-family="Arial, sans-serif" font-size="11" fill="#222">codigo</text>
					

						<line x1="400" y1="454" x2="645" y2="454" stroke="#d5d5d5" stroke-width="1"/>
						<text x="408" y="469" font-family="Arial, sans-serif" font-size="11" fill="#222">nombre</text>
					
				</g>
			

				<g>
					<rect x="730" y="380" width="245" height="100" fill="#ffffff" stroke="#333333" stroke-width="1.2"/>
					<rect x="730" y="380" width="245" height="30" fill="#f5f5f5" stroke="#333333" stroke-width="1.2"/>
					<text x="852.5" y="400" font-family="Arial, sans-serif" font-size="12" fill="#111" font-weight="700" text-anchor="middle">Propósito de reconocimiento</text>
					
						<line x1="730" y1="410" x2="975" y2="410" stroke="#d5d5d5" stroke-width="1"/>
						<text x="738" y="425" font-family="Arial, sans-serif" font-size="11" fill="#222">id</text>
					

						<line x1="730" y1="432" x2="975" y2="432" stroke="#d5d5d5" stroke-width="1"/>
						<text x="738" y="447" font-family="Arial, sans-serif" font-size="11" fill="#222">codigo</text>
					

						<line x1="730" y1="454" x2="975" y2="454" stroke="#d5d5d5" stroke-width="1"/>
						<text x="738" y="469" font-family="Arial, sans-serif" font-size="11" fill="#222">nombre</text>
					
				</g>
			

				<g>
					<rect x="1060" y="380" width="245" height="122" fill="#ffffff" stroke="#333333" stroke-width="1.2"/>
					<rect x="1060" y="380" width="245" height="30" fill="#f5f5f5" stroke="#333333" stroke-width="1.2"/>
					<text x="1182.5" y="400" font-family="Arial, sans-serif" font-size="12" fill="#111" font-weight="700" text-anchor="middle">Usuario (M1)</text>
					
						<line x1="1060" y1="410" x2="1305" y2="410" stroke="#d5d5d5" stroke-width="1"/>
						<text x="1068" y="425" font-family="Arial, sans-serif" font-size="11" fill="#222">id</text>
					

						<line x1="1060" y1="432" x2="1305" y2="432" stroke="#d5d5d5" stroke-width="1"/>
						<text x="1068" y="447" font-family="Arial, sans-serif" font-size="11" fill="#222">email</text>
					

						<line x1="1060" y1="454" x2="1305" y2="454" stroke="#d5d5d5" stroke-width="1"/>
						<text x="1068" y="469" font-family="Arial, sans-serif" font-size="11" fill="#222">rol</text>
					

						<line x1="1060" y1="476" x2="1305" y2="476" stroke="#d5d5d5" stroke-width="1"/>
						<text x="1068" y="491" font-family="Arial, sans-serif" font-size="11" fill="#222">estado</text>
					
				</g>
			

				<g>
					<rect x="70" y="680" width="245" height="100" fill="#ffffff" stroke="#333333" stroke-width="1.2"/>
					<rect x="70" y="680" width="245" height="30" fill="#f5f5f5" stroke="#333333" stroke-width="1.2"/>
					<text x="192.5" y="700" font-family="Arial, sans-serif" font-size="12" fill="#111" font-weight="700" text-anchor="middle">Cliente profesional (M2)</text>
					
						<line x1="70" y1="710" x2="315" y2="710" stroke="#d5d5d5" stroke-width="1"/>
						<text x="78" y="725" font-family="Arial, sans-serif" font-size="11" fill="#222">id</text>
					

						<line x1="70" y1="732" x2="315" y2="732" stroke="#d5d5d5" stroke-width="1"/>
						<text x="78" y="747" font-family="Arial, sans-serif" font-size="11" fill="#222">nombre</text>
					

						<line x1="70" y1="754" x2="315" y2="754" stroke="#d5d5d5" stroke-width="1"/>
						<text x="78" y="769" font-family="Arial, sans-serif" font-size="11" fill="#222">contacto</text>
					
				</g>
			

				<g>
					<rect x="400" y="680" width="245" height="100" fill="#ffffff" stroke="#333333" stroke-width="1.2"/>
					<rect x="400" y="680" width="245" height="30" fill="#f5f5f5" stroke="#333333" stroke-width="1.2"/>
					<text x="522.5" y="700" font-family="Arial, sans-serif" font-size="12" fill="#111" font-weight="700" text-anchor="middle">Cliente del salón (M5)</text>
					
						<line x1="400" y1="710" x2="645" y2="710" stroke="#d5d5d5" stroke-width="1"/>
						<text x="408" y="725" font-family="Arial, sans-serif" font-size="11" fill="#222">id</text>
					

						<line x1="400" y1="732" x2="645" y2="732" stroke="#d5d5d5" stroke-width="1"/>
						<text x="408" y="747" font-family="Arial, sans-serif" font-size="11" fill="#222">nombre</text>
					

						<line x1="400" y1="754" x2="645" y2="754" stroke="#d5d5d5" stroke-width="1"/>
						<text x="408" y="769" font-family="Arial, sans-serif" font-size="11" fill="#222">telefono</text>
					
				</g>
			

				<g>
					<rect x="730" y="680" width="245" height="100" fill="#ffffff" stroke="#333333" stroke-width="1.2"/>
					<rect x="730" y="680" width="245" height="30" fill="#f5f5f5" stroke="#333333" stroke-width="1.2"/>
					<text x="852.5" y="700" font-family="Arial, sans-serif" font-size="12" fill="#111" font-weight="700" text-anchor="middle">Producto (M3)</text>
					
						<line x1="730" y1="710" x2="975" y2="710" stroke="#d5d5d5" stroke-width="1"/>
						<text x="738" y="725" font-family="Arial, sans-serif" font-size="11" fill="#222">id</text>
					

						<line x1="730" y1="732" x2="975" y2="732" stroke="#d5d5d5" stroke-width="1"/>
						<text x="738" y="747" font-family="Arial, sans-serif" font-size="11" fill="#222">nombre</text>
					

						<line x1="730" y1="754" x2="975" y2="754" stroke="#d5d5d5" stroke-width="1"/>
						<text x="738" y="769" font-family="Arial, sans-serif" font-size="11" fill="#222">referencia</text>
					
				</g>
			
</svg>