<?xml version="1.0" encoding="UTF-8"?>
<svg xmlns="http://www.w3.org/2000/svg" width="1800" height="1180" viewBox="0 0 1800 1180">
<style>
	.bg { fill: #f8fafc; }
	.title { font: 700 38px Arial, sans-serif; fill: #0f172a; letter-spacing: 4px; }
	.subtitle { font: 400 21px Arial, sans-serif; fill: #475569; letter-spacing: 0.5px; }
	.module-box { fill: #ffffff; stroke: #cbd5e1; stroke-width: 2.2; filter: drop-shadow(0 10px 16px rgba(15, 23, 42, 0.10)); }
	.module-code-box { fill: #020617; }
	.module-code { font: 700 18px Arial, sans-serif; fill: #ffffff; }
	.module-title { font: 700 20px Arial, sans-serif; fill: #111827; }
	.module-line { font: 500 17px Arial, sans-serif; fill: #24324a; }
	.nested-line { font: 400 15px Arial, sans-serif; fill: #475569; }
	.connector { fill: none; stroke: #0f766e; stroke-width: 3; stroke-dasharray: 10 8; opacity: 0.64; }
	.connector-label { font: 700 14px Arial, sans-serif; fill: #0f766e; }
</style>
<rect width="1800" height="1180" class="bg"/>
<text x="60" y="58" class="title">MODELO FISICO POSTGRESQL</text>
<text x="60" y="94" class="subtitle">Resumen verificable de entidades persistentes por modulo y relaciones clave del flujo de pedidos.</text>

<path d="M 255 440 C 905 440, 905 130, 1555 130" class="connector"/>
<text x="857" y="273" class="connector-label">cliente/comercial</text>

<path d="M 1135 440 C 1345 440, 1345 130, 1555 130" class="connector"/>
<text x="1297" y="273" class="connector-label">producto/color</text>

<path d="M 1555 630 C 1555 630, 1555 700, 1555 700" class="connector"/>
<text x="1507" y="653" class="connector-label">estado logistico</text>

<path d="M 1135 700 C 1252.5 700, 1252.5 880, 1370 880" class="connector"/>
<text x="1204.5" y="778" class="connector-label">cargo agencia</text>

<path d="M 695 700 C 1032.5 700, 1032.5 940, 1370 940" class="connector"/>
<text x="984.5" y="808" class="connector-label">notificaciones</text>

<g>
	<rect x="60" y="130" width="390" height="310" rx="18" class="module-box"/>
	<rect x="82" y="152" width="56" height="40" rx="12" class="module-code-box"/>
	<text x="110" y="179" text-anchor="middle" class="module-code">M1</text>
	<text x="152" y="178" class="module-title">Acceso, usuarios y auditoria</text>
	<text x="88" y="222" class="module-line">users, roles, user_statuses</text>
<text x="88" y="248" class="module-line">registration_requests</text>
<text x="88" y="274" class="module-line">user_access_logs</text>
<text x="88" y="300" class="module-line">user_management_logs</text>
<text x="88" y="326" class="module-line">administrative action catalogs</text>
</g>

<g>
	<rect x="500" y="130" width="390" height="310" rx="18" class="module-box"/>
	<rect x="522" y="152" width="56" height="40" rx="12" class="module-code-box"/>
	<text x="550" y="179" text-anchor="middle" class="module-code">M2</text>
	<text x="592" y="178" class="module-title">Clientes, visitas y rutas</text>
	<text x="528" y="222" class="module-line">clients, commercials</text>
<text x="528" y="248" class="module-line">commercial_client_assignments</text>
<text x="528" y="274" class="module-line">commercial_visits</text>
<text x="528" y="300" class="module-line">commercial_routes</text>
<text x="528" y="326" class="module-line">commercial_route_stops</text>
<text x="528" y="352" class="module-line">persisted ETA and route metadata</text>
</g>

<g>
	<rect x="940" y="130" width="390" height="310" rx="18" class="module-box"/>
	<rect x="962" y="152" width="56" height="40" rx="12" class="module-code-box"/>
	<text x="990" y="179" text-anchor="middle" class="module-code">M3</text>
	<text x="1032" y="178" class="module-title">Catalogo y coloracion</text>
	<text x="968" y="222" class="module-line">products</text>
<text x="968" y="248" class="module-line">product_categories, product_lines</text>
<text x="968" y="274" class="module-line">product_subcategories</text>
<text x="968" y="300" class="module-line">color_charts</text>
<text x="968" y="326" class="module-line">color_references</text>
<text x="968" y="352" class="module-line">support_resources</text>
</g>

<g>
	<rect x="1370" y="130" width="370" height="500" rx="18" class="module-box"/>
	<rect x="1392" y="152" width="56" height="40" rx="12" class="module-code-box"/>
	<text x="1420" y="179" text-anchor="middle" class="module-code">M4</text>
	<text x="1462" y="178" class="module-title">Pedidos, repartos y pagos</text>
	<text x="1398" y="222" class="module-line">orders</text>
<text x="1414" y="248" class="nested-line">- client_id, commercial_id</text>
<text x="1414" y="274" class="nested-line">- status_id, payment_status_id</text>
<text x="1414" y="300" class="nested-line">- fulfillment_method, agency_fee</text>
<text x="1398" y="326" class="module-line">order_lines</text>
<text x="1414" y="352" class="nested-line">- product_id, color_reference_id</text>
<text x="1398" y="378" class="module-line">order_deliveries</text>
<text x="1414" y="404" class="nested-line">- order_id, visit_id, type</text>
<text x="1414" y="430" class="nested-line">- package_count, qr_payload</text>
<text x="1398" y="456" class="module-line">order_delivery_lines</text>
<text x="1414" y="482" class="nested-line">- delivery_id, order_line_id, quantity</text>
<text x="1398" y="508" class="module-line">order_payments</text>
<text x="1414" y="534" class="nested-line">- amount, method, paid_at, notes</text>
</g>

<g>
	<rect x="60" y="520" width="390" height="330" rx="18" class="module-box"/>
	<rect x="82" y="542" width="56" height="40" rx="12" class="module-code-box"/>
	<text x="110" y="569" text-anchor="middle" class="module-code">M5</text>
	<text x="152" y="568" class="module-title">Salon tecnico</text>
	<text x="88" y="612" class="module-line">salon_clients</text>
<text x="88" y="638" class="module-line">salon_services</text>
<text x="88" y="664" class="module-line">salon_service_products</text>
<text x="88" y="690" class="module-line">salon_service_images</text>
<text x="88" y="716" class="module-line">salon_service_templates</text>
<text x="88" y="742" class="module-line">technical drafts and formulas</text>
</g>

<g>
	<rect x="500" y="520" width="390" height="330" rx="18" class="module-box"/>
	<rect x="522" y="542" width="56" height="40" rx="12" class="module-code-box"/>
	<text x="550" y="569" text-anchor="middle" class="module-code">M6</text>
	<text x="592" y="568" class="module-title">Comunicaciones</text>
	<text x="528" y="612" class="module-line">promotions</text>
<text x="528" y="638" class="module-line">promotion_products</text>
<text x="528" y="664" class="module-line">customer_segments and tiers</text>
<text x="528" y="690" class="module-line">app_notifications</text>
<text x="528" y="716" class="module-line">training_events</text>
<text x="528" y="742" class="module-line">push_subscriptions</text>
<text x="528" y="768" class="module-line">delivery channel settings</text>
</g>

<g>
	<rect x="940" y="520" width="390" height="330" rx="18" class="module-box"/>
	<rect x="962" y="542" width="56" height="40" rx="12" class="module-code-box"/>
	<text x="990" y="569" text-anchor="middle" class="module-code">M7</text>
	<text x="1032" y="568" class="module-title">Configuracion e integraciones</text>
	<text x="968" y="612" class="module-line">system_configurations</text>
<text x="984" y="638" class="nested-line">- agency_delivery_fee</text>
<text x="968" y="664" class="module-line">rate_limit_policies</text>
<text x="968" y="690" class="module-line">enterprise_integrations</text>
<text x="968" y="716" class="module-line">enterprise_operations</text>
<text x="968" y="742" class="module-line">supplier_order_proposals</text>
</g>

<g>
	<rect x="1370" y="700" width="370" height="360" rx="18" class="module-box"/>
	<rect x="1392" y="722" width="56" height="40" rx="12" class="module-code-box"/>
	<text x="1420" y="749" text-anchor="middle" class="module-code">REL</text>
	<text x="1462" y="748" class="module-title">Relaciones clave</text>
	<text x="1398" y="792" class="module-line">clients -&gt; orders</text>
<text x="1398" y="818" class="module-line">commercials -&gt; orders</text>
<text x="1398" y="844" class="module-line">orders -&gt; order_lines</text>
<text x="1398" y="870" class="module-line">orders -&gt; order_deliveries</text>
<text x="1398" y="896" class="module-line">order_deliveries -&gt; commercial_visits</text>
<text x="1398" y="922" class="module-line">order_deliveries -&gt; order_delivery_lines</text>
<text x="1398" y="948" class="module-line">orders -&gt; order_payments</text>
<text x="1398" y="974" class="module-line">system_configurations -&gt; agency fee</text>
</g>
</svg>